# AST/ASF file generated using VICON BodyLanguage
# -----------------------------------------------
:version 1.10
:name VICON
:units
  mass 1.0
  length 0.45
  angle deg
:documentation
   .ast/.asf automatically generated from VICON data using
   VICON BodyBuilder and BodyLanguage model FoxedUp or BRILLIANT.MOD
:root
   order TX TY TZ RX RY RZ
   axis XYZ
   position 0 0 0  
   orientation 0 0 0 
:bonedata
  begin
     id 1 
     name lhipjoint
     direction 0.710188 -0.616876 0.339259 
     length 2.5669 
     axis 0 0 0  XYZ
  end
  begin
     id 2 
     name lfemur
     direction 0.34202 -0.939693 0  
     length 7.12796  
     axis 0 0 20  XYZ
    dof rx ry rz
    limits (-160.0 20.0)
           (-70.0 70.0)
           (-60.0 70.0)
  end
  begin
     id 3 
     name ltibia
     direction 0.34202 -0.939693 0   
     length 7.58108   
     axis 0 0 20   XYZ
    dof rx
    limits (-10.0 170.0)
  end
  begin
     id 4 
     name lfoot
     direction 0.0669471 -0.183936 0.980656   
     length 2.17365   
     axis -90 7.62852e-016 20   XYZ
    dof rx rz
    limits (-45.0 90.0)
           (-70.0 20.0)
  end
  begin
     id 5 
     name ltoes
     direction 1.53508e-011 -4.21705e-011 1   
     length 1.09427   
     axis -90 7.62852e-016 20   XYZ
    dof rx
    limits (-90.0 20.0)
  end
  begin
     id 6 
     name rhipjoint
     direction -0.700191 -0.625589 0.34405   
     length 2.53115  
     axis 0 0 0  XYZ 
  end
  begin
     id 7 
     name rfemur
     direction -0.34202 -0.939693 0   
     length 7.33006   
     axis 0 0 -20   XYZ
    dof rx ry rz
    limits (-160.0 20.0)
           (-70.0 70.0)
           (-70.0 60.0)
  end
  begin
     id 8 
     name rtibia
     direction -0.34202 -0.939693 0   
     length 7.64926   
     axis 0 0 -20   XYZ
    dof rx
    limits (-10.0 170.0)
 end
 begin
     id 9 
     name rfoot
     direction -0.0688927 -0.189281 0.979503   
     length 2.20493  
     axis -90 -7.62852e-016 -20   XYZ
    dof rx rz
    limits (-45.0 90.0)
           (-20.0 70.0)
  end
  begin
     id 10 
     name rtoes
     direction -1.53567e-011 -4.21933e-011 1   
     length 1.10919   
     axis -90 -7.62852e-016 -20   XYZ
    dof rx
    limits (-90.0 20.0)
  end
  begin
     id 11 
     name lowerback
     direction -0.0167868 0.989873 -0.140959   
     length 2.14596   
     axis 0 0 0   XYZ
    dof rx ry rz
    limits (-20.0 45.0)
           (-30.0 30.0)
           (-30.0 30.0)
  end
  begin
     id 12 
     name upperback
     direction 0.0129109 0.998033 0.0613525   
     length 2.10457   
     axis 0 0 0   XYZ
    dof rx ry rz
    limits (-20.0 45.0)
           (-30.0 30.0)
           (-30.0 30.0)
  end
  begin
     id 13 
     name thorax
     direction 0.0177047 0.991119 0.131797   
     length 2.17652   
     axis 0 0 0   XYZ
    dof rx ry rz
    limits (-20.0 45.0)
           (-30.0 30.0)
           (-30.0 30.0)
  end
  begin
     id 14 
     name lowerneck
     direction -0.0336893 0.997548 0.0613464   
     length 1.8912   
     axis 0 0 0   XYZ
    dof rx ry rz
    limits (-20.0 45.0)
           (-30.0 30.0)
           (-30.0 30.0)
  end
  begin
     id 15 
     name upperneck
     direction 0.0435909 0.997179 -0.0611028   
     length 1.8829   
     axis 0 0 0   XYZ
    dof rx ry rz
    limits (-20.0 45.0)
           (-30.0 30.0)
           (-30.0 30.0)
  end
  begin
     id 16
     name head
     direction 0.0175076 0.999444 -0.0283782  
     length 1.93197  
     axis 0 0 0   XYZ
    dof rx ry rz
    limits (-20.0 45.0)
           (-30.0 30.0)
           (-30.0 30.0)
  end
  begin
     id 17 
     name lclavicle
     direction 0.919164 0.389875 0.0559876  
     length 3.60004  
     axis 0 0 0   XYZ
    dof ry rz
    limits (-20.0 10.0)
           (0.0 20.0)
  end
  begin
     id 18 
     name lhumerus
     direction 1 -4.48958e-011 6.89191e-027   
     length 5.43301   
     axis 180 -30 -90   XYZ
    dof rx ry rz
    limits (-60.0 90.0)
           (-90.0 90.0)
           (-90.0 90.0)
  end
  begin
     id 19
     name lradius
     direction 1 -4.4897e-011 3.24727e-027   
     length 3.15936   
     axis 180 -30 -90   XYZ
    dof rx
    limits (-10.0 170.0)
  end
  begin
     id 20
     name lwrist
     direction 1 -4.4897e-011 9.00228e-027   
     length 1.57968   
     axis -6.29373e-015 90 90   XYZ
    dof ry
    limits (-180.0 0.0)
 end
  begin
     id 21 
     name lhand
     direction 1 -4.48968e-011 1.80042e-026   
     length 0.712827   
     axis -1.14882e-014 90 90   XYZ
    dof rx rz
    limits (-90.0 90.0)
           (-45.0 45.0)
  end
  begin
     id 22 
     name lfingers
     direction 1 -4.49019e-011 3.60267e-026   
     length 0.574699   
     axis -2.29769e-014 90 90   XYZ
    dof rx
    limits (0.0 90.0)
  end
  begin
     id 23
     name lthumb
     direction 0.707107 -6.3498e-011 0.707107   
     length 0.825157   
     axis -90 45 5.37419e-014   XYZ
    dof rx rz
    limits (-45.0 45.0)
           (-45.0 45.0)
  end
  begin
     id 24 
     name rclavicle
     direction -0.890334 0.455305 -0.00132111   
     length 3.51494  
     axis 0 0 0   XYZ 
    dof ry rz
    limits (-10.0 20.0)
           (-20.0 0.0)
  end
  begin
     id 25 
     name rhumerus
     direction -1 -4.48967e-011 5.07175e-028  
     length 5.34194   
     axis 180 30 90   XYZ
    dof rx ry rz
    limits (-90.0 60.0)
           (-90.0 90.0)
           (-90.0 90.0)
  end
  begin
     id 26 
     name rradius
     direction -1 -4.48955e-011 3.30467e-027   
     length 3.19351   
     axis 180 30 90   XYZ
    dof rx
    limits (-10.0 170.0)
  end
  begin
     id 27 
     name rwrist
     direction -1 -4.48968e-011 9.00208e-027   
     length 1.59676   
     axis -6.29373e-015 -90 -90   XYZ
    dof ry
    limits (-180.0 0.0)
  end
  begin
     id 28
     name rhand
     direction -1 -4.49e-011 1.80099e-026   
     length 0.743862   
     axis -1.14882e-014 -90 -90   XYZ
    dof rx rz
    limits (-90.0 90.0)
           (-45.0 45.0)
  end
  begin
     id 29
     name rfingers
     direction -1 -4.49009e-011 3.6023e-026   
     length 0.599721   
     axis -2.29769e-014 -90 -90   XYZ
    dof rx
    limits (0.0 90.0)
  end
  begin
     id 30
     name rthumb
     direction -0.707107 -6.35025e-011 0.707107   
     length 0.861083   
     axis -90 -45 -5.37419e-014   XYZ
    dof rx rz
    limits (-45.0 45.0)
           (-45.0 45.0)
  end
:hierarchy
  begin
    root lhipjoint rhipjoint lowerback
    lhipjoint lfemur
    lfemur ltibia
    ltibia lfoot
    lfoot ltoes
    rhipjoint rfemur
    rfemur rtibia
    rtibia rfoot
    rfoot rtoes
    lowerback upperback
    upperback thorax
    thorax lowerneck lclavicle rclavicle
    lowerneck upperneck
    upperneck head
    lclavicle lhumerus
    lhumerus lradius
    lradius lwrist
    lwrist lhand lthumb
    lhand lfingers
    rclavicle rhumerus
    rhumerus rradius
    rradius rwrist
    rwrist rhand rthumb
    rhand rfingers
  end

#!OML:ASF H:\Martial Arts Walks\Project 1\Capture day 1\Session 1\male.ASF
:FULLY-SPECIFIED
:DEGREES
1
root -1.35198 13.8699 -38.6208 2.33535 44.9836 1.39554
lowerback 11.5035 -0.750394 -8.08687
upperback -3.73527 -2.24844 0.222641
thorax -10.2431 -0.542962 5.2559
lowerneck 5.35749 -14.9946 -15.6807
upperneck 5.3475 -21.6026 15.1049
head 4.08739 -10.9149 6.01976
rclavicle -1.7257e-014 1.82882e-014
rhumerus -3.85326 -15.699 -69.0682
rradius 88.2423
rwrist 18.2039
rhand -43.1761 -34.2769
rfingers 7.12502
rthumb -16.0279 -63.634
lclavicle -1.7257e-014 1.82882e-014
lhumerus -53.1795 -43.7504 115.756
lradius 107.216
lwrist 83.7431
lhand 8.13733 38.5971
lfingers 7.12502
lthumb 33.3576 65.5212
rfemur -60.7978 -37.3879 12.3241
rtibia 66.702
rfoot -4.66747 8.79651
rtoes 21.1959
lfemur -25.1738 30.4206 -12.4726
ltibia 80.0319
lfoot -38.3305 21.68
ltoes -16.6251
2
root -1.35301 13.8708 -38.6224 2.27077 44.9491 1.24505
lowerback 11.5014 -0.695233 -8.00669
upperback -3.7302 -2.15805 0.260647
thorax -10.2502 -0.503268 5.23479
lowerneck 5.19597 -15.0312 -15.6224
upperneck 5.41185 -21.6322 15.0528
head 4.12507 -10.9209 5.9773
rclavicle 3.47873e-015 2.70347e-014
rhumerus -3.81555 -15.8719 -69.0145
rradius 88.2603
rwrist 18.2044
rhand -43.183 -34.2937
rfingers 7.12502
rthumb -16.0346 -63.6502
lclavicle 3.47873e-015 2.70347e-014
lhumerus -53.0171 -43.8537 115.738
lradius 107.095
lwrist 83.6452
lhand 8.33553 38.5889
lfingers 7.12502
lthumb 33.546 65.4723
rfemur -60.8427 -37.32 12.4764
rtibia 66.6821
rfoot -4.1158 8.84032
rtoes 19.2
lfemur -25.2386 30.4717 -12.3728
ltibia 80.0624
lfoot -38.3046 21.7299
ltoes -16.725
3
root -1.35405 13.8702 -38.6222 2.27089 44.9574 1.24844
lowerback 11.4733 -0.726698 -7.97937
upperback -3.75125 -2.19562 0.246399
thorax -10.2526 -0.52288 5.21026
lowerneck 5.31971 -15.0103 -15.6556
upperneck 5.39887 -21.6203 15.0679
head 4.10473 -10.9212 5.99873
rclavicle 4.44408e-014 1.19271e-014
rhumerus -3.89985 -15.7401 -69.0272
rradius 88.2489
rwrist 18.1791
rhand -43.2219 -34.3139
rfingers 7.12502
rthumb -16.072 -63.6674
lclavicle 4.44408e-014 1.19271e-014
lhumerus -53.1383 -43.8235 115.777
lradius 107.13
lwrist 83.692
lhand 8.74859 38.7799
lfingers 7.12502
lthumb 33.9385 65.5773
rfemur -60.8487 -37.3305 12.4765
rtibia 66.6872
rfoot -3.56875 8.93697
rtoes 17.1266
lfemur -25.2543 30.4588 -12.3811
ltibia 80.0688
lfoot -38.2294 21.8715
ltoes -16.9056
4
root -1.35457 13.871 -38.6211 2.2747 44.971 1.27331
lowerback 11.4891 -0.705823 -8.02203
upperback -3.72878 -2.17439 0.249862
thorax -10.2389 -0.511111 5.23426
lowerneck 5.20252 -15.0209 -15.6313
upperneck 5.45409 -21.6233 15.0484
head 4.13584 -10.9166 5.97751
rclavicle 6.57108e-014 2.38542e-015
rhumerus -3.8613 -15.8255 -69.0046
rradius 88.246
rwrist 18.1658
rhand -43.2232 -34.2371
rfingers 7.12502
rthumb -16.0733 -63.5905
lclavicle 6.57108e-014 2.38542e-015
lhumerus -53.0714 -43.8685 115.764
lradius 107.11
lwrist 83.6863
lhand 8.38125 38.5694
lfingers 7.12502
lthumb 33.5894 65.4433
rfemur -60.8205 -37.3415 12.4435
rtibia 66.6841
rfoot -3.07305 9.04273
rtoes 14.9064
lfemur -25.2296 30.4543 -12.3823
ltibia 80.0659
lfoot -38.2863 21.7549
ltoes -16.7589
5
root -1.35529 13.8713 -38.6207 2.26989 44.9763 1.27192
lowerback 11.4876 -0.697959 -8.02737
upperback -3.72278 -2.1642 0.250447
thorax -10.2326 -0.50634 5.23579
lowerneck 5.16455 -15.0234 -15.6225
upperneck 5.48584 -21.6242 15.0391
head 4.14964 -10.9149 5.96927
rclavicle 1.72446e-014 7.95139e-016
rhumerus -3.86502 -15.8501 -68.9899
rradius 88.2432
rwrist 18.1609
rhand -43.2282 -34.2115
rfingers 7.12502
rthumb -16.0781 -63.5645
lclavicle 1.72446e-014 7.95139e-016
lhumerus -53.0597 -43.8955 115.77
lradius 107.096
lwrist 83.6863
lhand 8.3491 38.5321
lfingers 7.12502
lthumb 33.5589 65.4127
rfemur -60.8145 -37.3441 12.443
rtibia 66.6878
rfoot -2.64638 9.13942
rtoes 12.8119
lfemur -25.2271 30.453 -12.3757
ltibia 80.0643
lfoot -38.2822 21.7501
ltoes -16.7564
6
root -1.35595 13.8715 -38.6201 2.27058 44.9842 1.28442
lowerback 11.4862 -0.692922 -8.04117
upperback -3.7161 -2.15945 0.247249
thorax -10.2249 -0.50386 5.23899
lowerneck 5.13754 -15.0228 -15.6173
upperneck 5.51359 -21.6223 15.0355
head 4.1611 -10.9124 5.96457
rclavicle -4.33599e-014 -2.38542e-014
rhumerus -3.87173 -15.8671 -68.9783
rradius 88.2394
rwrist 18.1652
rhand -43.2249 -34.1867
rfingers 7.12502
rthumb -16.0749 -63.5399
lclavicle -4.33599e-014 -2.38542e-014
lhumerus -53.0612 -43.9173 115.778
lradius 107.091
lwrist 83.6924
lhand 8.29117 38.4992
lfingers 7.12502
lthumb 33.5038 65.3917
rfemur -60.8033 -37.3533 12.4292
rtibia 66.6907
rfoot -2.30065 9.23181
rtoes 10.9314
lfemur -25.2172 30.4473 -12.3779
ltibia 80.0588
lfoot -38.2791 21.7426
ltoes -16.7464
7
root -1.35655 13.8717 -38.6194 2.27161 44.9912 1.29826
lowerback 11.4851 -0.686726 -8.05641
upperback -3.7086 -2.15339 0.243574
thorax -10.2166 -0.500734 5.24223
lowerneck 5.11051 -15.0216 -15.6116
upperneck 5.53979 -21.6197 15.0339
head 4.17214 -10.9095 5.96053
rclavicle 3.66509e-015 -7.15625e-015
rhumerus -3.87718 -15.8895 -68.9668
rradius 88.2371
rwrist 18.1801
rhand -43.2126 -34.1664
rfingers 7.12502
rthumb -16.0631 -63.5206
lclavicle 3.66509e-015 -7.15625e-015
lhumerus -53.0628 -43.9399 115.787
lradius 107.085
lwrist 83.6957
lhand 8.21956 38.4699
lfingers 7.12502
lthumb 33.4358 65.3771
rfemur -60.7921 -37.3632 12.4146
rtibia 66.695
rfoot -2.0482 9.30891
rtoes 9.40758
lfemur -25.2053 30.442 -12.3807
ltibia 80.0534
lfoot -38.277 21.7366
ltoes -16.7379
8
root -1.35713 13.8718 -38.6187 2.27257 44.997 1.31179
lowerback 11.4821 -0.682622 -8.06879
upperback -3.70293 -2.1497 0.238696
thorax -10.2089 -0.49889 5.24295
lowerneck 5.0974 -15.018 -15.6092
upperneck 5.55973 -21.6153 15.036
head 4.17958 -10.9064 5.95964
rclavicle 3.68746e-014 1.03368e-014
rhumerus -3.88833 -15.9039 -68.9577
rradius 88.2359
rwrist 18.2026
rhand -43.1958 -34.1579
rfingers 7.12502
rthumb -16.047 -63.5134
lclavicle 3.68746e-014 1.03368e-014
lhumerus -53.0749 -43.9584 115.799
lradius 107.083
lwrist 83.6991
lhand 8.17875 38.461
lfingers 7.12502
lthumb 33.397 65.3766
rfemur -60.7825 -37.3734 12.4014
rtibia 66.7
rfoot -1.88404 9.36549
rtoes 8.32978
lfemur -25.1936 30.4365 -12.384
ltibia 80.0473
lfoot -38.2683 21.7443
ltoes -16.7476
9
root -1.35769 13.8719 -38.6181 2.27329 45.0021 1.32466
lowerback 11.4785 -0.679623 -8.08031
upperback -3.69781 -2.1473 0.23419
thorax -10.2014 -0.497686 5.24383
lowerneck 5.08861 -15.0133 -15.6087
upperneck 5.57598 -21.6097 15.0388
head 4.18529 -10.903 5.95984
rclavicle -2.45126e-014 8.34896e-015
rhumerus -3.90046 -15.9143 -68.9499
rradius 88.2362
rwrist 18.2259
rhand -43.1807 -34.1576
rfingers 7.12502
rthumb -16.0324 -63.5142
lclavicle -2.45126e-014 8.34896e-015
lhumerus -53.0892 -43.974 115.811
lradius 107.084
lwrist 83.7017
lhand 8.14418 38.4523
lfingers 7.12502
lthumb 33.3641 65.375
rfemur -60.7733 -37.3834 12.3891
rtibia 66.7048
rfoot -1.79106 9.40184
rtoes 7.67124
lfemur -25.1817 30.4311 -12.3869
ltibia 80.041
lfoot -38.2574 21.7564
ltoes -16.7648
10
root -1.35826 13.872 -38.6175 2.2727 45.0065 1.3343
lowerback 11.4751 -0.677607 -8.08982
upperback -3.69327 -2.14579 0.23135
thorax -10.1943 -0.496932 5.24558
lowerneck 5.0808 -15.0083 -15.6096
upperneck 5.58924 -21.6033 15.0401
head 4.1898 -10.8994 5.96002
rclavicle 5.0044e-014 -2.18663e-014
rhumerus -3.91197 -15.9203 -68.9429
rradius 88.2376
rwrist 18.2434
rhand -43.1712 -34.1677
rfingers 7.12502
rthumb -16.0232 -63.5251
lclavicle 5.0044e-014 -2.18663e-014
lhumerus -53.1016 -43.9872 115.822
lradius 107.087
lwrist 83.7029
lhand 8.11747 38.4386
lfingers 7.12502
lthumb 33.3387 65.3667
rfemur -60.7651 -37.3916 12.3798
rtibia 66.7091
rfoot -1.74909 9.42065
rtoes 7.34223
lfemur -25.1712 30.426 -12.3874
ltibia 80.0354
lfoot -38.2457 21.7699
ltoes -16.7867
11
root -1.35885 13.872 -38.617 2.27092 45.0109 1.34068
lowerback 11.472 -0.676714 -8.09799
upperback -3.68908 -2.14542 0.230833
thorax -10.1878 -0.496696 5.24935
lowerneck 5.07143 -15.0033 -15.6116
upperneck 5.60027 -21.5964 15.0384
head 4.19358 -10.8955 5.95945
rclavicle 1.68967e-015 -1.19271e-014
rhumerus -3.92146 -15.9213 -68.9362
rradius 88.2396
rwrist 18.2495
rhand -43.1704 -34.1866
rfingers 7.12502
rthumb -16.0224 -63.544
lclavicle 1.68967e-015 -1.19271e-014
lhumerus -53.109 -43.9979 115.831
lradius 107.092
lwrist 83.7031
lhand 8.09894 38.4177
lfingers 7.12502
lthumb 33.3211 65.3496
rfemur -60.7577 -37.398 12.3734
rtibia 66.7129
rfoot -1.73775 9.42731
rtoes 7.22076
lfemur -25.1629 30.4209 -12.3859
ltibia 80.0307
lfoot -38.2339 21.7827
ltoes -16.8097
12
root -1.35949 13.8721 -38.6165 2.26807 45.0157 1.34391
lowerback 11.4699 -0.676642 -8.10504
upperback -3.68503 -2.14584 0.232722
thorax -10.1817 -0.496799 5.25532
lowerneck 5.05832 -14.9987 -15.6138
upperneck 5.60999 -21.5892 15.0332
head 4.19715 -10.8914 5.95763
rclavicle 8.95525e-014 1.19271e-014
rhumerus -3.92807 -15.9186 -68.9294
rradius 88.2416
rwrist 18.2409
rhand -43.1783 -34.2114
rfingers 7.12502
rthumb -16.0301 -63.5682
lclavicle 8.95525e-014 1.19271e-014
lhumerus -53.1099 -44.0072 115.837
lradius 107.097
lwrist 83.7025
lhand 8.09041 38.3882
lfingers 7.12502
lthumb 33.313 65.3219
rfemur -60.7512 -37.4027 12.3695
rtibia 66.716
rfoot -1.74091 9.42684
rtoes 7.19846
lfemur -25.157 30.4157 -12.3826
ltibia 80.0273
lfoot -38.2238 21.7919
ltoes -16.8285
13
root -1.36016 13.8722 -38.6162 2.2645 45.0209 1.34444
lowerback 11.4685 -0.677139 -8.1112
upperback -3.68111 -2.14678 0.236577
thorax -10.176 -0.49711 5.26306
lowerneck 5.04187 -14.9946 -15.6155
upperneck 5.61886 -21.5818 15.0246
head 4.20053 -10.8871 5.95453
rclavicle -4.45402e-014 1.35174e-014
rhumerus -3.93182 -15.9141 -68.9228
rradius 88.2431
rwrist 18.2192
rhand -43.1918 -34.2361
rfingers 7.12502
rthumb -16.043 -63.5919
lclavicle -4.45402e-014 1.35174e-014
lhumerus -53.1053 -44.0155 115.841
lradius 107.101
lwrist 83.701
lhand 8.09385 38.3515
lfingers 7.12502
lthumb 33.3163 65.2845
rfemur -60.7457 -37.4059 12.368
rtibia 66.7186
rfoot -1.74854 9.42275
rtoes 7.2063
lfemur -25.1537 30.411 -12.3779
ltibia 80.0255
lfoot -38.2164 21.7959
ltoes -16.8398
